<svg fill="#FFFFFF" xmlns="http://www.w3.org/2000/svg"  viewBox="0 0 24 24" width="48px" height="48px"><path d="M1.993,12c0-5.52,4.48-10,10-10	s10,4.48,10,10s-4.48,10-10,10S1.993,17.52,1.993,12z M8.993,16v-6h-2v6H8.993z M12.993,12.693c0-0.973,0.88-1.12,1.093-1.12	c0.2,0,0.907,0.213,0.907,1.12V16h2v-3.307c0-1.893-0.947-2.693-2-2.693s-1.72,0.346-2,0.84V10h-2v6h2	C12.993,16,12.993,12.84,12.993,12.693z M8.993,8c0-0.574-0.387-1-0.96-1c-0.653,0-1.04,0.426-1.04,1S7.38,9,7.967,9	C8.607,9,8.993,8.574,8.993,8z"/></svg>